<svg width="64" height="64" viewBox="0 0 64 64" fill="none" xmlns="http://www.w3.org/2000/svg">
<path d="M32 40C27.7565 40 23.6869 38.3143 20.6863 35.3137C17.6857 32.3131 16 28.2435 16 24C16 19.7565 17.6857 15.6869 20.6863 12.6863C23.6869 9.68571 27.7565 8 32 8C36.2435 8 40.3131 9.68571 43.3137 12.6863C46.3143 15.6869 48 19.7565 48 24C48 28.2435 46.3143 32.3131 43.3137 35.3137C40.3131 38.3143 36.2435 40 32 40ZM32 40L41.0667 55.7067L45.328 47.0853L54.9227 47.704L45.856 32M18.1386 32L9.07195 47.7067L18.6666 47.0853L22.9279 55.704L31.9946 40" stroke="#84451A" stroke-width="5.5" stroke-linecap="round" stroke-linejoin="round"/>
</svg>
