<svg width="55" height="54" viewBox="0 0 55 54" fill="none" xmlns="http://www.w3.org/2000/svg">
<path d="M3.5 51H51.5M3.5 13.6667V16.3333C3.5 18.4551 4.34285 20.4899 5.84315 21.9902C7.34344 23.4905 9.37827 24.3333 11.5 24.3333C13.6217 24.3333 15.6566 23.4905 17.1569 21.9902C18.6571 20.4899 19.5 18.4551 19.5 16.3333M3.5 13.6667H51.5M3.5 13.6667L8.83333 3H46.1667L51.5 13.6667M19.5 16.3333V13.6667M19.5 16.3333C19.5 18.4551 20.3429 20.4899 21.8431 21.9902C23.3434 23.4905 25.3783 24.3333 27.5 24.3333C29.6217 24.3333 31.6566 23.4905 33.1569 21.9902C34.6571 20.4899 35.5 18.4551 35.5 16.3333M35.5 16.3333V13.6667M35.5 16.3333C35.5 18.4551 36.3429 20.4899 37.8431 21.9902C39.3434 23.4905 41.3783 24.3333 43.5 24.3333C45.6217 24.3333 47.6566 23.4905 49.1569 21.9902C50.6571 20.4899 51.5 18.4551 51.5 16.3333V13.6667M8.83333 50.9999V23.9333M46.1667 50.9999V23.9333M19.5 51V40.3333C19.5 38.9188 20.0619 37.5623 21.0621 36.5621C22.0623 35.5619 23.4188 35 24.8333 35H30.1667C31.5812 35 32.9377 35.5619 33.9379 36.5621C34.9381 37.5623 35.5 38.9188 35.5 40.3333V51" stroke="#84451A" stroke-width="5.5" stroke-linecap="round" stroke-linejoin="round"/>
</svg>
