<svg width="1440" height="137" viewBox="0 0 1440 137" fill="none" xmlns="http://www.w3.org/2000/svg">
<path d="M46.9447 82.2853H9.49879L3.30269 100.2H-16.4979L17.3113 6.0464H39.267L73.0761 100.2H53.1408L46.9447 82.2853ZM41.8262 67.1992L28.2218 27.8674L14.6173 67.1992H41.8262Z" fill="#E9DCC4"/>
<path d="M102.551 36.3534C104.975 32.941 108.298 30.1124 112.518 27.8674C116.829 25.5327 121.723 24.3653 127.2 24.3653C133.576 24.3653 139.323 25.9368 144.442 29.0797C149.65 32.2227 153.736 36.7126 156.699 42.5495C159.752 48.2966 161.279 54.9866 161.279 62.6194C161.279 70.2523 159.752 77.0321 156.699 82.9588C153.736 88.7957 149.65 93.3305 144.442 96.5632C139.323 99.796 133.576 101.412 127.2 101.412C121.723 101.412 116.874 100.29 112.653 98.0449C108.522 95.7999 105.155 92.9713 102.551 89.559V135.76H83.693V25.5776H102.551V36.3534ZM142.017 62.6194C142.017 58.1295 141.074 54.2682 139.188 51.0354C137.392 47.7129 134.968 45.1985 131.915 43.4924C128.951 41.7862 125.719 40.9331 122.217 40.9331C118.804 40.9331 115.571 41.8311 112.518 43.6271C109.555 45.3332 107.13 47.8476 105.245 51.1701C103.449 54.4927 102.551 58.3989 102.551 62.8888C102.551 67.3787 103.449 71.285 105.245 74.6075C107.13 77.9301 109.555 80.4893 112.518 82.2853C115.571 83.9915 118.804 84.8445 122.217 84.8445C125.719 84.8445 128.951 83.9466 131.915 82.1506C134.968 80.3546 137.392 77.7954 139.188 74.4728C141.074 71.1503 142.017 67.1992 142.017 62.6194Z" fill="#E9DCC4"/>
<path d="M168.113 62.6194C168.113 55.0764 169.594 48.3864 172.558 42.5495C175.611 36.7126 179.697 32.2227 184.815 29.0797C190.023 25.9368 195.815 24.3653 202.191 24.3653C207.759 24.3653 212.608 25.4878 216.739 27.7327C220.959 29.9777 224.326 32.8063 226.841 36.2187V25.5776H245.833V100.2H226.841V89.2896C224.416 92.7917 221.049 95.7102 216.739 98.0449C212.518 100.29 207.624 101.412 202.056 101.412C195.771 101.412 190.023 99.796 184.815 96.5632C179.697 93.3305 175.611 88.7957 172.558 82.9588C169.594 77.0321 168.113 70.2523 168.113 62.6194ZM226.841 62.8888C226.841 58.3091 225.943 54.4029 224.147 51.1701C222.351 47.8476 219.926 45.3332 216.873 43.6271C213.82 41.8311 210.542 40.9331 207.04 40.9331C203.538 40.9331 200.305 41.7862 197.342 43.4924C194.379 45.1985 191.954 47.7129 190.068 51.0354C188.272 54.2682 187.374 58.1295 187.374 62.6194C187.374 67.1094 188.272 71.0605 190.068 74.4728C191.954 77.7954 194.379 80.3546 197.342 82.1506C200.395 83.9466 203.628 84.8445 207.04 84.8445C210.542 84.8445 213.82 83.9915 216.873 82.2853C219.926 80.4893 222.351 77.975 224.147 74.7422C225.943 71.4197 226.841 67.4685 226.841 62.8888Z" fill="#E9DCC4"/>
<path d="M345.377 100.2L311.164 58.3091V100.2H292.306V6.18111H311.164V48.3415L345.377 6.18111H368.141L329.348 52.7865L369.218 100.2H345.377Z" fill="#E9DCC4"/>
<path d="M374.753 62.6194C374.753 55.0764 376.234 48.3864 379.198 42.5495C382.251 36.7126 386.337 32.2227 391.455 29.0797C396.663 25.9368 402.455 24.3653 408.831 24.3653C414.399 24.3653 419.248 25.4878 423.378 27.7327C427.599 29.9777 430.966 32.8063 433.481 36.2187V25.5776H452.473V100.2H433.481V89.2896C431.056 92.7917 427.689 95.7102 423.378 98.0449C419.158 100.29 414.264 101.412 408.696 101.412C402.41 101.412 396.663 99.796 391.455 96.5632C386.337 93.3305 382.251 88.7957 379.198 82.9588C376.234 77.0321 374.753 70.2523 374.753 62.6194ZM433.481 62.8888C433.481 58.3091 432.583 54.4029 430.787 51.1701C428.991 47.8476 426.566 45.3332 423.513 43.6271C420.46 41.8311 417.182 40.9331 413.68 40.9331C410.178 40.9331 406.945 41.7862 403.982 43.4924C401.019 45.1985 398.594 47.7129 396.708 51.0354C394.912 54.2682 394.014 58.1295 394.014 62.6194C394.014 67.1094 394.912 71.0605 396.708 74.4728C398.594 77.7954 401.019 80.3546 403.982 82.1506C407.035 83.9466 410.268 84.8445 413.68 84.8445C417.182 84.8445 420.46 83.9915 423.513 82.2853C426.566 80.4893 428.991 77.975 430.787 74.7422C432.583 71.4197 433.481 67.4685 433.481 62.8888Z" fill="#E9DCC4"/>
<path d="M490.826 41.0678V77.1668C490.826 79.6811 491.41 81.522 492.577 82.6894C493.834 83.767 495.9 84.3057 498.773 84.3057H507.529V100.2H495.675C479.781 100.2 471.834 92.4774 471.834 77.0321V41.0678H462.944V25.5776H471.834V7.12398H490.826V25.5776H507.529V41.0678H490.826Z" fill="#E9DCC4"/>
<path d="M514.222 62.6194C514.222 55.0764 515.704 48.3864 518.667 42.5495C521.721 36.7126 525.806 32.2227 530.925 29.0797C536.133 25.9368 541.925 24.3653 548.301 24.3653C553.869 24.3653 558.718 25.4878 562.848 27.7327C567.069 29.9777 570.436 32.8063 572.951 36.2187V25.5776H591.943V100.2H572.951V89.2896C570.526 92.7917 567.159 95.7102 562.848 98.0449C558.628 100.29 553.734 101.412 548.166 101.412C541.88 101.412 536.133 99.796 530.925 96.5632C525.806 93.3305 521.721 88.7957 518.667 82.9588C515.704 77.0321 514.222 70.2523 514.222 62.6194ZM572.951 62.8888C572.951 58.3091 572.053 54.4029 570.257 51.1701C568.461 47.8476 566.036 45.3332 562.983 43.6271C559.93 41.8311 556.652 40.9331 553.15 40.9331C549.648 40.9331 546.415 41.7862 543.452 43.4924C540.489 45.1985 538.064 47.7129 536.178 51.0354C534.382 54.2682 533.484 58.1295 533.484 62.6194C533.484 67.1094 534.382 71.0605 536.178 74.4728C538.064 77.7954 540.489 80.3546 543.452 82.1506C546.505 83.9466 549.738 84.8445 553.15 84.8445C556.652 84.8445 559.93 83.9915 562.983 82.2853C566.036 80.4893 568.461 77.975 570.257 74.7422C572.053 71.4197 572.951 67.4685 572.951 62.8888Z" fill="#E9DCC4"/>
<path d="M706.977 35.2758C706.977 40.3045 705.765 45.0189 703.34 49.4191C701.005 53.8192 697.279 57.3662 692.16 60.0602C687.132 62.7541 680.756 64.1011 673.033 64.1011H657.273V100.2H638.416V6.18111H673.033C680.307 6.18111 686.503 7.43828 691.621 9.95264C696.74 12.467 700.556 15.9242 703.071 20.3244C705.675 24.7245 706.977 29.7083 706.977 35.2758ZM672.225 48.8803C677.433 48.8803 681.295 47.7129 683.809 45.3781C686.323 42.9536 687.581 39.5861 687.581 35.2758C687.581 26.1164 682.462 21.5366 672.225 21.5366H657.273V48.8803H672.225Z" fill="#E9DCC4"/>
<path d="M787.715 61.2724C787.715 63.9664 787.535 66.391 787.176 68.5461H732.623C733.072 73.934 734.958 78.1546 738.28 81.2077C741.603 84.2608 745.689 85.7874 750.538 85.7874C757.542 85.7874 762.526 82.7792 765.489 76.7627H785.829C783.674 83.9466 779.543 89.8733 773.437 94.5428C767.33 99.1225 759.832 101.412 750.942 101.412C743.758 101.412 737.293 99.8409 731.546 96.6979C725.888 93.4652 721.443 88.9304 718.211 83.0935C715.068 77.2566 713.496 70.5217 713.496 62.8888C713.496 55.1662 715.068 48.3864 718.211 42.5495C721.353 36.7126 725.754 32.2227 731.411 29.0797C737.068 25.9368 743.579 24.3653 750.942 24.3653C758.036 24.3653 764.367 25.8919 769.934 28.945C775.592 31.9982 779.947 36.3534 783 42.0107C786.143 47.5782 787.715 53.9988 787.715 61.2724ZM768.183 55.8845C768.094 51.0354 766.343 47.1741 762.93 44.3005C759.518 41.3372 755.342 39.8555 750.403 39.8555C745.734 39.8555 741.783 41.2923 738.55 44.1658C735.407 46.9496 733.476 50.8558 732.758 55.8845H768.183Z" fill="#E9DCC4"/>
<path d="M818.316 0.523804V100.2H799.458V0.523804H818.316Z" fill="#E9DCC4"/>
<path d="M830.078 62.6194C830.078 55.0764 831.56 48.3864 834.523 42.5495C837.576 36.7126 841.662 32.2227 846.781 29.0797C851.989 25.9368 857.781 24.3653 864.157 24.3653C869.724 24.3653 874.573 25.4878 878.704 27.7327C882.924 29.9777 886.292 32.8063 888.806 36.2187V25.5776H907.799V100.2H888.806V89.2896C886.382 92.7917 883.014 95.7102 878.704 98.0449C874.483 100.29 869.589 101.412 864.022 101.412C857.736 101.412 851.989 99.796 846.781 96.5632C841.662 93.3305 837.576 88.7957 834.523 82.9588C831.56 77.0321 830.078 70.2523 830.078 62.6194ZM888.806 62.8888C888.806 58.3091 887.908 54.4029 886.112 51.1701C884.316 47.8476 881.892 45.3332 878.839 43.6271C875.785 41.8311 872.508 40.9331 869.006 40.9331C865.503 40.9331 862.271 41.7862 859.307 43.4924C856.344 45.1985 853.919 47.7129 852.034 51.0354C850.238 54.2682 849.34 58.1295 849.34 62.6194C849.34 67.1094 850.238 71.0605 852.034 74.4728C853.919 77.7954 856.344 80.3546 859.307 82.1506C862.361 83.9466 865.593 84.8445 869.006 84.8445C872.508 84.8445 875.785 83.9915 878.839 82.2853C881.892 80.4893 884.316 77.975 886.112 74.7422C887.908 71.4197 888.806 67.4685 888.806 62.8888Z" fill="#E9DCC4"/>
<path d="M965.548 24.5C974.438 24.5 981.622 27.3286 987.1 32.9859C992.577 38.5534 995.316 46.3659 995.316 56.4233V100.2H976.459V58.9826C976.459 53.0559 974.977 48.5211 972.014 45.3781C969.05 42.1454 965.009 40.529 959.891 40.529C954.682 40.529 950.552 42.1454 947.499 45.3781C944.535 48.5211 943.054 53.0559 943.054 58.9826V100.2H924.196V25.5776H943.054V34.8717C945.568 31.639 948.756 29.1246 952.617 27.3286C956.568 25.4429 960.879 24.5 965.548 24.5Z" fill="#E9DCC4"/>
<path d="M1040.46 24.3653C1046.03 24.3653 1050.92 25.4878 1055.14 27.7327C1059.36 29.8879 1062.68 32.7165 1065.11 36.2187V25.5776H1084.1V100.739C1084.1 107.653 1082.71 113.805 1079.92 119.192C1077.14 124.67 1072.96 128.98 1067.4 132.123C1061.83 135.356 1055.09 136.973 1047.19 136.973C1036.6 136.973 1027.89 134.503 1021.06 129.564C1014.33 124.625 1010.51 117.89 1009.61 109.36H1028.34C1029.32 112.772 1031.43 115.466 1034.67 117.441C1037.99 119.507 1041.98 120.539 1046.65 120.539C1052.13 120.539 1056.58 118.878 1059.99 115.556C1063.4 112.323 1065.11 107.384 1065.11 100.739V89.1549C1062.68 92.657 1059.32 95.5755 1055.01 97.9102C1050.78 100.245 1045.94 101.412 1040.46 101.412C1034.17 101.412 1028.42 99.796 1023.22 96.5632C1018.01 93.3305 1013.88 88.7957 1010.82 82.9588C1007.86 77.0321 1006.38 70.2523 1006.38 62.6194C1006.38 55.0764 1007.86 48.3864 1010.82 42.5495C1013.88 36.7126 1017.96 32.2227 1023.08 29.0797C1028.29 25.9368 1034.08 24.3653 1040.46 24.3653ZM1065.11 62.8888C1065.11 58.3091 1064.21 54.4029 1062.41 51.1701C1060.62 47.8476 1058.19 45.3332 1055.14 43.6271C1052.09 41.8311 1048.81 40.9331 1045.31 40.9331C1041.8 40.9331 1038.57 41.7862 1035.61 43.4924C1032.65 45.1985 1030.22 47.7129 1028.34 51.0354C1026.54 54.2682 1025.64 58.1295 1025.64 62.6194C1025.64 67.1094 1026.54 71.0605 1028.34 74.4728C1030.22 77.7954 1032.65 80.3546 1035.61 82.1506C1038.66 83.9466 1041.89 84.8445 1045.31 84.8445C1048.81 84.8445 1052.09 83.9915 1055.14 82.2853C1058.19 80.4893 1060.62 77.975 1062.41 74.7422C1064.21 71.4197 1065.11 67.4685 1065.11 62.8888Z" fill="#E9DCC4"/>
<path d="M1129.73 24.3653C1135.29 24.3653 1140.19 25.4878 1144.41 27.7327C1148.63 29.8879 1151.95 32.7165 1154.38 36.2187V25.5776H1173.37V100.739C1173.37 107.653 1171.98 113.805 1169.19 119.192C1166.41 124.67 1162.23 128.98 1156.67 132.123C1151.1 135.356 1144.36 136.973 1136.46 136.973C1125.87 136.973 1117.15 134.503 1110.33 129.564C1103.6 124.625 1099.78 117.89 1098.88 109.36H1117.6C1118.59 112.772 1120.7 115.466 1123.93 117.441C1127.26 119.507 1131.25 120.539 1135.92 120.539C1141.4 120.539 1145.85 118.878 1149.26 115.556C1152.67 112.323 1154.38 107.384 1154.38 100.739V89.1549C1151.95 92.657 1148.58 95.5755 1144.27 97.9102C1140.05 100.245 1135.2 101.412 1129.73 101.412C1123.44 101.412 1117.69 99.796 1112.49 96.5632C1107.28 93.3305 1103.15 88.7957 1100.09 82.9588C1097.13 77.0321 1095.65 70.2523 1095.65 62.6194C1095.65 55.0764 1097.13 48.3864 1100.09 42.5495C1103.15 36.7126 1107.23 32.2227 1112.35 29.0797C1117.56 25.9368 1123.35 24.3653 1129.73 24.3653ZM1154.38 62.8888C1154.38 58.3091 1153.48 54.4029 1151.68 51.1701C1149.89 47.8476 1147.46 45.3332 1144.41 43.6271C1141.36 41.8311 1138.08 40.9331 1134.58 40.9331C1131.07 40.9331 1127.84 41.7862 1124.88 43.4924C1121.91 45.1985 1119.49 47.7129 1117.6 51.0354C1115.81 54.2682 1114.91 58.1295 1114.91 62.6194C1114.91 67.1094 1115.81 71.0605 1117.6 74.4728C1119.49 77.7954 1121.91 80.3546 1124.88 82.1506C1127.93 83.9466 1131.16 84.8445 1134.58 84.8445C1138.08 84.8445 1141.36 83.9915 1144.41 82.2853C1147.46 80.4893 1149.89 77.975 1151.68 74.7422C1153.48 71.4197 1154.38 67.4685 1154.38 62.8888Z" fill="#E9DCC4"/>
<path d="M1184.92 62.6194C1184.92 55.0764 1186.4 48.3864 1189.36 42.5495C1192.42 36.7126 1196.5 32.2227 1201.62 29.0797C1206.83 25.9368 1212.62 24.3653 1219 24.3653C1224.56 24.3653 1229.41 25.4878 1233.54 27.7327C1237.76 29.9777 1241.13 32.8063 1243.65 36.2187V25.5776H1262.64V100.2H1243.65V89.2896C1241.22 92.7917 1237.85 95.7102 1233.54 98.0449C1229.32 100.29 1224.43 101.412 1218.86 101.412C1212.57 101.412 1206.83 99.796 1201.62 96.5632C1196.5 93.3305 1192.42 88.7957 1189.36 82.9588C1186.4 77.0321 1184.92 70.2523 1184.92 62.6194ZM1243.65 62.8888C1243.65 58.3091 1242.75 54.4029 1240.95 51.1701C1239.16 47.8476 1236.73 45.3332 1233.68 43.6271C1230.62 41.8311 1227.35 40.9331 1223.84 40.9331C1220.34 40.9331 1217.11 41.7862 1214.15 43.4924C1211.18 45.1985 1208.76 47.7129 1206.87 51.0354C1205.08 54.2682 1204.18 58.1295 1204.18 62.6194C1204.18 67.1094 1205.08 71.0605 1206.87 74.4728C1208.76 77.7954 1211.18 80.3546 1214.15 82.1506C1217.2 83.9466 1220.43 84.8445 1223.84 84.8445C1227.35 84.8445 1230.62 83.9915 1233.68 82.2853C1236.73 80.4893 1239.16 77.975 1240.95 74.7422C1242.75 71.4197 1243.65 67.4685 1243.65 62.8888Z" fill="#E9DCC4"/>
<path d="M1320.39 24.5C1329.28 24.5 1336.46 27.3286 1341.94 32.9859C1347.42 38.5534 1350.16 46.3659 1350.16 56.4233V100.2H1331.3V58.9826C1331.3 53.0559 1329.82 48.5211 1326.85 45.3781C1323.89 42.1454 1319.85 40.529 1314.73 40.529C1309.52 40.529 1305.39 42.1454 1302.34 45.3781C1299.37 48.5211 1297.89 53.0559 1297.89 58.9826V100.2H1279.03V25.5776H1297.89V34.8717C1300.41 31.639 1303.59 29.1246 1307.46 27.3286C1311.41 25.4429 1315.72 24.5 1320.39 24.5Z" fill="#E9DCC4"/>
<path d="M1422.41 2.94835C1431.75 2.94835 1439.25 5.50761 1444.9 10.6261C1450.65 15.6548 1453.52 22.6142 1453.52 31.5043C1453.52 40.3045 1450.7 47.0394 1445.04 51.7089C1439.38 56.2886 1431.88 58.5785 1422.54 58.5785L1422 68.9502H1405.44L1404.76 46.0516H1410.82C1418.64 46.0516 1424.65 45.0189 1428.87 42.9536C1433.1 40.8882 1435.21 37.1167 1435.21 31.639C1435.21 27.6878 1434.04 24.5449 1431.7 22.2101C1429.46 19.8754 1426.36 18.708 1422.41 18.708C1418.28 18.708 1415.05 19.8305 1412.71 22.0754C1410.47 24.3204 1409.34 27.4184 1409.34 31.3696H1391.56C1391.47 25.8919 1392.64 20.9978 1395.07 16.6875C1397.49 12.3772 1401.04 9.00975 1405.71 6.58519C1410.47 4.16063 1416.03 2.94835 1422.41 2.94835ZM1413.65 101.143C1410.24 101.143 1407.41 100.11 1405.17 98.0449C1403.01 95.8898 1401.93 93.2407 1401.93 90.0977C1401.93 86.9548 1403.01 84.3506 1405.17 82.2853C1407.41 80.1301 1410.24 79.0525 1413.65 79.0525C1416.98 79.0525 1419.72 80.1301 1421.87 82.2853C1424.03 84.3506 1425.1 86.9548 1425.1 90.0977C1425.1 93.2407 1424.03 95.8898 1421.87 98.0449C1419.72 100.11 1416.98 101.143 1413.65 101.143Z" fill="#E9DCC4"/>
</svg>
