<svg width="139" height="40" viewBox="0 0 139 40" fill="none" xmlns="http://www.w3.org/2000/svg">
<path d="M137.01 34.2701C138.073 33.9677 138.689 32.8614 138.387 31.799L133.459 14.4865C133.157 13.4241 132.051 12.808 130.988 13.1103C129.926 13.4127 129.31 14.519 129.612 15.5814L133.992 30.9703L118.603 35.35C117.541 35.6524 116.924 36.7587 117.227 37.8211C117.529 38.8835 118.636 39.4996 119.698 39.1972L137.01 34.2701ZM1.92029 0.432128C0.8166 0.476157 -0.0424262 1.40657 0.00160364 2.51026C0.0456335 3.61395 0.976042 4.47298 2.07974 4.42895L1.92029 0.432128ZM137.436 30.5991C117.488 19.4902 62.6461 -1.99036 1.92029 0.432128L2.07974 4.42895C61.9096 2.04219 116.027 23.255 135.49 34.0938L137.436 30.5991Z" fill="#84451A"/>
</svg>
