<svg width="139" height="40" viewBox="0 0 139 40" fill="none" xmlns="http://www.w3.org/2000/svg">
<path d="M1.45252 34.2701C0.390139 33.9677 -0.225987 32.8614 0.0763713 31.799L5.00353 14.4865C5.30589 13.4241 6.41223 12.808 7.47461 13.1103C8.53699 13.4127 9.15311 14.519 8.85076 15.5814L4.47106 30.9703L19.86 35.35C20.9223 35.6524 21.5385 36.7587 21.2361 37.8211C20.9337 38.8835 19.8274 39.4996 18.765 39.1972L1.45252 34.2701ZM136.543 0.432128C137.646 0.476157 138.505 1.40657 138.461 2.51026C138.417 3.61395 137.487 4.47298 136.383 4.42895L136.543 0.432128ZM1.0269 30.5991C20.9747 19.4902 75.8169 -1.99036 136.543 0.432128L136.383 4.42895C76.5533 2.04219 22.4357 23.255 2.97307 34.0938L1.0269 30.5991Z" fill="#84451A"/>
</svg>
